<?xml version="1.0" encoding="UTF-8" standalone="no"?><svg xmlns="http://www.w3.org/2000/svg" xmlns:xlink="http://www.w3.org/1999/xlink" contentScriptType="application/ecmascript" contentStyleType="text/css" height="175px" preserveAspectRatio="none" style="width:552px;height:175px;" version="1.1" viewBox="0 0 552 175" width="552px" zoomAndPan="magnify"><defs><filter height="300%" id="f18n51n6y4zhbw" width="300%" x="-1" y="-1"><feGaussianBlur result="blurOut" stdDeviation="2.0"/><feColorMatrix in="blurOut" result="blurOut2" type="matrix" values="0 0 0 0 0 0 0 0 0 0 0 0 0 0 0 0 0 0 .4 0"/><feOffset dx="4.0" dy="4.0" in="blurOut2" result="blurOut3"/><feBlend in="SourceGraphic" in2="blurOut3" mode="normal"/></filter></defs><g><!--class Class21--><rect fill="#FEFECE" filter="url(#f18n51n6y4zhbw)" height="48" id="Class21" style="stroke: #A80036; stroke-width: 1.5;" width="79" x="6" y="8"/><ellipse cx="21" cy="24" fill="#ADD1B2" rx="11" ry="11" style="stroke: #A80036; stroke-width: 1.0;"/><path d="M23.7656,19.875 Q23.9219,19.6563 24.1094,19.5469 Q24.2969,19.4375 24.5156,19.4375 Q24.8906,19.4375 25.125,19.7031 Q25.3594,19.9531 25.3594,20.5625 L25.3594,22.0156 Q25.3594,22.625 25.125,22.8906 Q24.8906,23.1563 24.5156,23.1563 Q24.1719,23.1563 23.9688,22.9531 Q23.7656,22.7656 23.6563,22.25 Q23.6094,21.8906 23.4219,21.7031 Q23.0938,21.3281 22.4844,21.1094 Q21.875,20.8906 21.25,20.8906 Q20.4844,20.8906 19.8438,21.2188 Q19.2188,21.5469 18.7188,22.2969 Q18.2344,23.0469 18.2344,24.0781 L18.2344,25.1719 Q18.2344,26.4063 19.125,27.2344 Q20.0156,28.0469 21.6094,28.0469 Q22.5469,28.0469 23.2031,27.7969 Q23.5938,27.6406 24.0156,27.2031 Q24.2813,26.9375 24.4219,26.8594 Q24.5781,26.7813 24.7813,26.7813 Q25.1094,26.7813 25.3594,27.0469 Q25.625,27.2969 25.625,27.6406 Q25.625,27.9844 25.2813,28.3906 Q24.7813,28.9688 23.9844,29.2969 Q22.9063,29.75 21.6094,29.75 Q20.0938,29.75 18.8906,29.125 Q17.9063,28.625 17.2188,27.5625 Q16.5313,26.4844 16.5313,25.2031 L16.5313,24.0469 Q16.5313,22.7188 17.1406,21.5781 Q17.7656,20.4219 18.8594,19.8125 Q19.9531,19.1875 21.1875,19.1875 Q21.9219,19.1875 22.5625,19.3594 Q23.2188,19.5156 23.7656,19.875 Z "/><text fill="#000000" font-family="sans-serif" font-size="12" lengthAdjust="spacingAndGlyphs" textLength="47" x="35" y="28.9102">Class21</text><line style="stroke: #A80036; stroke-width: 1.5;" x1="7" x2="84" y1="40" y2="40"/><line style="stroke: #A80036; stroke-width: 1.5;" x1="7" x2="84" y1="48" y2="48"/><!--class Class22--><rect fill="#FEFECE" filter="url(#f18n51n6y4zhbw)" height="48" id="Class22" style="stroke: #A80036; stroke-width: 1.5;" width="79" x="6" y="116"/><ellipse cx="21" cy="132" fill="#ADD1B2" rx="11" ry="11" style="stroke: #A80036; stroke-width: 1.0;"/><path d="M23.7656,127.875 Q23.9219,127.6563 24.1094,127.5469 Q24.2969,127.4375 24.5156,127.4375 Q24.8906,127.4375 25.125,127.7031 Q25.3594,127.9531 25.3594,128.5625 L25.3594,130.0156 Q25.3594,130.625 25.125,130.8906 Q24.8906,131.1563 24.5156,131.1563 Q24.1719,131.1563 23.9688,130.9531 Q23.7656,130.7656 23.6563,130.25 Q23.6094,129.8906 23.4219,129.7031 Q23.0938,129.3281 22.4844,129.1094 Q21.875,128.8906 21.25,128.8906 Q20.4844,128.8906 19.8438,129.2188 Q19.2188,129.5469 18.7188,130.2969 Q18.2344,131.0469 18.2344,132.0781 L18.2344,133.1719 Q18.2344,134.4063 19.125,135.2344 Q20.0156,136.0469 21.6094,136.0469 Q22.5469,136.0469 23.2031,135.7969 Q23.5938,135.6406 24.0156,135.2031 Q24.2813,134.9375 24.4219,134.8594 Q24.5781,134.7813 24.7813,134.7813 Q25.1094,134.7813 25.3594,135.0469 Q25.625,135.2969 25.625,135.6406 Q25.625,135.9844 25.2813,136.3906 Q24.7813,136.9688 23.9844,137.2969 Q22.9063,137.75 21.6094,137.75 Q20.0938,137.75 18.8906,137.125 Q17.9063,136.625 17.2188,135.5625 Q16.5313,134.4844 16.5313,133.2031 L16.5313,132.0469 Q16.5313,130.7188 17.1406,129.5781 Q17.7656,128.4219 18.8594,127.8125 Q19.9531,127.1875 21.1875,127.1875 Q21.9219,127.1875 22.5625,127.3594 Q23.2188,127.5156 23.7656,127.875 Z "/><text fill="#000000" font-family="sans-serif" font-size="12" lengthAdjust="spacingAndGlyphs" textLength="47" x="35" y="136.9102">Class22</text><line style="stroke: #A80036; stroke-width: 1.5;" x1="7" x2="84" y1="148" y2="148"/><line style="stroke: #A80036; stroke-width: 1.5;" x1="7" x2="84" y1="156" y2="156"/><!--class Class23--><rect fill="#FEFECE" filter="url(#f18n51n6y4zhbw)" height="48" id="Class23" style="stroke: #A80036; stroke-width: 1.5;" width="79" x="120" y="8"/><ellipse cx="135" cy="24" fill="#ADD1B2" rx="11" ry="11" style="stroke: #A80036; stroke-width: 1.0;"/><path d="M137.7656,19.875 Q137.9219,19.6563 138.1094,19.5469 Q138.2969,19.4375 138.5156,19.4375 Q138.8906,19.4375 139.125,19.7031 Q139.3594,19.9531 139.3594,20.5625 L139.3594,22.0156 Q139.3594,22.625 139.125,22.8906 Q138.8906,23.1563 138.5156,23.1563 Q138.1719,23.1563 137.9688,22.9531 Q137.7656,22.7656 137.6563,22.25 Q137.6094,21.8906 137.4219,21.7031 Q137.0938,21.3281 136.4844,21.1094 Q135.875,20.8906 135.25,20.8906 Q134.4844,20.8906 133.8438,21.2188 Q133.2188,21.5469 132.7188,22.2969 Q132.2344,23.0469 132.2344,24.0781 L132.2344,25.1719 Q132.2344,26.4063 133.125,27.2344 Q134.0156,28.0469 135.6094,28.0469 Q136.5469,28.0469 137.2031,27.7969 Q137.5938,27.6406 138.0156,27.2031 Q138.2813,26.9375 138.4219,26.8594 Q138.5781,26.7813 138.7813,26.7813 Q139.1094,26.7813 139.3594,27.0469 Q139.625,27.2969 139.625,27.6406 Q139.625,27.9844 139.2813,28.3906 Q138.7813,28.9688 137.9844,29.2969 Q136.9063,29.75 135.6094,29.75 Q134.0938,29.75 132.8906,29.125 Q131.9063,28.625 131.2188,27.5625 Q130.5313,26.4844 130.5313,25.2031 L130.5313,24.0469 Q130.5313,22.7188 131.1406,21.5781 Q131.7656,20.4219 132.8594,19.8125 Q133.9531,19.1875 135.1875,19.1875 Q135.9219,19.1875 136.5625,19.3594 Q137.2188,19.5156 137.7656,19.875 Z "/><text fill="#000000" font-family="sans-serif" font-size="12" lengthAdjust="spacingAndGlyphs" textLength="47" x="149" y="28.9102">Class23</text><line style="stroke: #A80036; stroke-width: 1.5;" x1="121" x2="198" y1="40" y2="40"/><line style="stroke: #A80036; stroke-width: 1.5;" x1="121" x2="198" y1="48" y2="48"/><!--class Class24--><rect fill="#FEFECE" filter="url(#f18n51n6y4zhbw)" height="48" id="Class24" style="stroke: #A80036; stroke-width: 1.5;" width="79" x="120" y="116"/><ellipse cx="135" cy="132" fill="#ADD1B2" rx="11" ry="11" style="stroke: #A80036; stroke-width: 1.0;"/><path d="M137.7656,127.875 Q137.9219,127.6563 138.1094,127.5469 Q138.2969,127.4375 138.5156,127.4375 Q138.8906,127.4375 139.125,127.7031 Q139.3594,127.9531 139.3594,128.5625 L139.3594,130.0156 Q139.3594,130.625 139.125,130.8906 Q138.8906,131.1563 138.5156,131.1563 Q138.1719,131.1563 137.9688,130.9531 Q137.7656,130.7656 137.6563,130.25 Q137.6094,129.8906 137.4219,129.7031 Q137.0938,129.3281 136.4844,129.1094 Q135.875,128.8906 135.25,128.8906 Q134.4844,128.8906 133.8438,129.2188 Q133.2188,129.5469 132.7188,130.2969 Q132.2344,131.0469 132.2344,132.0781 L132.2344,133.1719 Q132.2344,134.4063 133.125,135.2344 Q134.0156,136.0469 135.6094,136.0469 Q136.5469,136.0469 137.2031,135.7969 Q137.5938,135.6406 138.0156,135.2031 Q138.2813,134.9375 138.4219,134.8594 Q138.5781,134.7813 138.7813,134.7813 Q139.1094,134.7813 139.3594,135.0469 Q139.625,135.2969 139.625,135.6406 Q139.625,135.9844 139.2813,136.3906 Q138.7813,136.9688 137.9844,137.2969 Q136.9063,137.75 135.6094,137.75 Q134.0938,137.75 132.8906,137.125 Q131.9063,136.625 131.2188,135.5625 Q130.5313,134.4844 130.5313,133.2031 L130.5313,132.0469 Q130.5313,130.7188 131.1406,129.5781 Q131.7656,128.4219 132.8594,127.8125 Q133.9531,127.1875 135.1875,127.1875 Q135.9219,127.1875 136.5625,127.3594 Q137.2188,127.5156 137.7656,127.875 Z "/><text fill="#000000" font-family="sans-serif" font-size="12" lengthAdjust="spacingAndGlyphs" textLength="47" x="149" y="136.9102">Class24</text><line style="stroke: #A80036; stroke-width: 1.5;" x1="121" x2="198" y1="148" y2="148"/><line style="stroke: #A80036; stroke-width: 1.5;" x1="121" x2="198" y1="156" y2="156"/><!--class Class25--><rect fill="#FEFECE" filter="url(#f18n51n6y4zhbw)" height="48" id="Class25" style="stroke: #A80036; stroke-width: 1.5;" width="79" x="234" y="8"/><ellipse cx="249" cy="24" fill="#ADD1B2" rx="11" ry="11" style="stroke: #A80036; stroke-width: 1.0;"/><path d="M251.7656,19.875 Q251.9219,19.6563 252.1094,19.5469 Q252.2969,19.4375 252.5156,19.4375 Q252.8906,19.4375 253.125,19.7031 Q253.3594,19.9531 253.3594,20.5625 L253.3594,22.0156 Q253.3594,22.625 253.125,22.8906 Q252.8906,23.1563 252.5156,23.1563 Q252.1719,23.1563 251.9688,22.9531 Q251.7656,22.7656 251.6563,22.25 Q251.6094,21.8906 251.4219,21.7031 Q251.0938,21.3281 250.4844,21.1094 Q249.875,20.8906 249.25,20.8906 Q248.4844,20.8906 247.8438,21.2188 Q247.2188,21.5469 246.7188,22.2969 Q246.2344,23.0469 246.2344,24.0781 L246.2344,25.1719 Q246.2344,26.4063 247.125,27.2344 Q248.0156,28.0469 249.6094,28.0469 Q250.5469,28.0469 251.2031,27.7969 Q251.5938,27.6406 252.0156,27.2031 Q252.2813,26.9375 252.4219,26.8594 Q252.5781,26.7813 252.7813,26.7813 Q253.1094,26.7813 253.3594,27.0469 Q253.625,27.2969 253.625,27.6406 Q253.625,27.9844 253.2813,28.3906 Q252.7813,28.9688 251.9844,29.2969 Q250.9063,29.75 249.6094,29.75 Q248.0938,29.75 246.8906,29.125 Q245.9063,28.625 245.2188,27.5625 Q244.5313,26.4844 244.5313,25.2031 L244.5313,24.0469 Q244.5313,22.7188 245.1406,21.5781 Q245.7656,20.4219 246.8594,19.8125 Q247.9531,19.1875 249.1875,19.1875 Q249.9219,19.1875 250.5625,19.3594 Q251.2188,19.5156 251.7656,19.875 Z "/><text fill="#000000" font-family="sans-serif" font-size="12" lengthAdjust="spacingAndGlyphs" textLength="47" x="263" y="28.9102">Class25</text><line style="stroke: #A80036; stroke-width: 1.5;" x1="235" x2="312" y1="40" y2="40"/><line style="stroke: #A80036; stroke-width: 1.5;" x1="235" x2="312" y1="48" y2="48"/><!--class Class26--><rect fill="#FEFECE" filter="url(#f18n51n6y4zhbw)" height="48" id="Class26" style="stroke: #A80036; stroke-width: 1.5;" width="79" x="234" y="116"/><ellipse cx="249" cy="132" fill="#ADD1B2" rx="11" ry="11" style="stroke: #A80036; stroke-width: 1.0;"/><path d="M251.7656,127.875 Q251.9219,127.6563 252.1094,127.5469 Q252.2969,127.4375 252.5156,127.4375 Q252.8906,127.4375 253.125,127.7031 Q253.3594,127.9531 253.3594,128.5625 L253.3594,130.0156 Q253.3594,130.625 253.125,130.8906 Q252.8906,131.1563 252.5156,131.1563 Q252.1719,131.1563 251.9688,130.9531 Q251.7656,130.7656 251.6563,130.25 Q251.6094,129.8906 251.4219,129.7031 Q251.0938,129.3281 250.4844,129.1094 Q249.875,128.8906 249.25,128.8906 Q248.4844,128.8906 247.8438,129.2188 Q247.2188,129.5469 246.7188,130.2969 Q246.2344,131.0469 246.2344,132.0781 L246.2344,133.1719 Q246.2344,134.4063 247.125,135.2344 Q248.0156,136.0469 249.6094,136.0469 Q250.5469,136.0469 251.2031,135.7969 Q251.5938,135.6406 252.0156,135.2031 Q252.2813,134.9375 252.4219,134.8594 Q252.5781,134.7813 252.7813,134.7813 Q253.1094,134.7813 253.3594,135.0469 Q253.625,135.2969 253.625,135.6406 Q253.625,135.9844 253.2813,136.3906 Q252.7813,136.9688 251.9844,137.2969 Q250.9063,137.75 249.6094,137.75 Q248.0938,137.75 246.8906,137.125 Q245.9063,136.625 245.2188,135.5625 Q244.5313,134.4844 244.5313,133.2031 L244.5313,132.0469 Q244.5313,130.7188 245.1406,129.5781 Q245.7656,128.4219 246.8594,127.8125 Q247.9531,127.1875 249.1875,127.1875 Q249.9219,127.1875 250.5625,127.3594 Q251.2188,127.5156 251.7656,127.875 Z "/><text fill="#000000" font-family="sans-serif" font-size="12" lengthAdjust="spacingAndGlyphs" textLength="47" x="263" y="136.9102">Class26</text><line style="stroke: #A80036; stroke-width: 1.5;" x1="235" x2="312" y1="148" y2="148"/><line style="stroke: #A80036; stroke-width: 1.5;" x1="235" x2="312" y1="156" y2="156"/><!--class Class27--><rect fill="#FEFECE" filter="url(#f18n51n6y4zhbw)" height="48" id="Class27" style="stroke: #A80036; stroke-width: 1.5;" width="79" x="348" y="8"/><ellipse cx="363" cy="24" fill="#ADD1B2" rx="11" ry="11" style="stroke: #A80036; stroke-width: 1.0;"/><path d="M365.7656,19.875 Q365.9219,19.6563 366.1094,19.5469 Q366.2969,19.4375 366.5156,19.4375 Q366.8906,19.4375 367.125,19.7031 Q367.3594,19.9531 367.3594,20.5625 L367.3594,22.0156 Q367.3594,22.625 367.125,22.8906 Q366.8906,23.1563 366.5156,23.1563 Q366.1719,23.1563 365.9688,22.9531 Q365.7656,22.7656 365.6563,22.25 Q365.6094,21.8906 365.4219,21.7031 Q365.0938,21.3281 364.4844,21.1094 Q363.875,20.8906 363.25,20.8906 Q362.4844,20.8906 361.8438,21.2188 Q361.2188,21.5469 360.7188,22.2969 Q360.2344,23.0469 360.2344,24.0781 L360.2344,25.1719 Q360.2344,26.4063 361.125,27.2344 Q362.0156,28.0469 363.6094,28.0469 Q364.5469,28.0469 365.2031,27.7969 Q365.5938,27.6406 366.0156,27.2031 Q366.2813,26.9375 366.4219,26.8594 Q366.5781,26.7813 366.7813,26.7813 Q367.1094,26.7813 367.3594,27.0469 Q367.625,27.2969 367.625,27.6406 Q367.625,27.9844 367.2813,28.3906 Q366.7813,28.9688 365.9844,29.2969 Q364.9063,29.75 363.6094,29.75 Q362.0938,29.75 360.8906,29.125 Q359.9063,28.625 359.2188,27.5625 Q358.5313,26.4844 358.5313,25.2031 L358.5313,24.0469 Q358.5313,22.7188 359.1406,21.5781 Q359.7656,20.4219 360.8594,19.8125 Q361.9531,19.1875 363.1875,19.1875 Q363.9219,19.1875 364.5625,19.3594 Q365.2188,19.5156 365.7656,19.875 Z "/><text fill="#000000" font-family="sans-serif" font-size="12" lengthAdjust="spacingAndGlyphs" textLength="47" x="377" y="28.9102">Class27</text><line style="stroke: #A80036; stroke-width: 1.5;" x1="349" x2="426" y1="40" y2="40"/><line style="stroke: #A80036; stroke-width: 1.5;" x1="349" x2="426" y1="48" y2="48"/><!--class Class28--><rect fill="#FEFECE" filter="url(#f18n51n6y4zhbw)" height="48" id="Class28" style="stroke: #A80036; stroke-width: 1.5;" width="79" x="348" y="116"/><ellipse cx="363" cy="132" fill="#ADD1B2" rx="11" ry="11" style="stroke: #A80036; stroke-width: 1.0;"/><path d="M365.7656,127.875 Q365.9219,127.6563 366.1094,127.5469 Q366.2969,127.4375 366.5156,127.4375 Q366.8906,127.4375 367.125,127.7031 Q367.3594,127.9531 367.3594,128.5625 L367.3594,130.0156 Q367.3594,130.625 367.125,130.8906 Q366.8906,131.1563 366.5156,131.1563 Q366.1719,131.1563 365.9688,130.9531 Q365.7656,130.7656 365.6563,130.25 Q365.6094,129.8906 365.4219,129.7031 Q365.0938,129.3281 364.4844,129.1094 Q363.875,128.8906 363.25,128.8906 Q362.4844,128.8906 361.8438,129.2188 Q361.2188,129.5469 360.7188,130.2969 Q360.2344,131.0469 360.2344,132.0781 L360.2344,133.1719 Q360.2344,134.4063 361.125,135.2344 Q362.0156,136.0469 363.6094,136.0469 Q364.5469,136.0469 365.2031,135.7969 Q365.5938,135.6406 366.0156,135.2031 Q366.2813,134.9375 366.4219,134.8594 Q366.5781,134.7813 366.7813,134.7813 Q367.1094,134.7813 367.3594,135.0469 Q367.625,135.2969 367.625,135.6406 Q367.625,135.9844 367.2813,136.3906 Q366.7813,136.9688 365.9844,137.2969 Q364.9063,137.75 363.6094,137.75 Q362.0938,137.75 360.8906,137.125 Q359.9063,136.625 359.2188,135.5625 Q358.5313,134.4844 358.5313,133.2031 L358.5313,132.0469 Q358.5313,130.7188 359.1406,129.5781 Q359.7656,128.4219 360.8594,127.8125 Q361.9531,127.1875 363.1875,127.1875 Q363.9219,127.1875 364.5625,127.3594 Q365.2188,127.5156 365.7656,127.875 Z "/><text fill="#000000" font-family="sans-serif" font-size="12" lengthAdjust="spacingAndGlyphs" textLength="47" x="377" y="136.9102">Class28</text><line style="stroke: #A80036; stroke-width: 1.5;" x1="349" x2="426" y1="148" y2="148"/><line style="stroke: #A80036; stroke-width: 1.5;" x1="349" x2="426" y1="156" y2="156"/><!--class Class29--><rect fill="#FEFECE" filter="url(#f18n51n6y4zhbw)" height="48" id="Class29" style="stroke: #A80036; stroke-width: 1.5;" width="79" x="462" y="8"/><ellipse cx="477" cy="24" fill="#ADD1B2" rx="11" ry="11" style="stroke: #A80036; stroke-width: 1.0;"/><path d="M479.7656,19.875 Q479.9219,19.6563 480.1094,19.5469 Q480.2969,19.4375 480.5156,19.4375 Q480.8906,19.4375 481.125,19.7031 Q481.3594,19.9531 481.3594,20.5625 L481.3594,22.0156 Q481.3594,22.625 481.125,22.8906 Q480.8906,23.1563 480.5156,23.1563 Q480.1719,23.1563 479.9688,22.9531 Q479.7656,22.7656 479.6563,22.25 Q479.6094,21.8906 479.4219,21.7031 Q479.0938,21.3281 478.4844,21.1094 Q477.875,20.8906 477.25,20.8906 Q476.4844,20.8906 475.8438,21.2188 Q475.2188,21.5469 474.7188,22.2969 Q474.2344,23.0469 474.2344,24.0781 L474.2344,25.1719 Q474.2344,26.4063 475.125,27.2344 Q476.0156,28.0469 477.6094,28.0469 Q478.5469,28.0469 479.2031,27.7969 Q479.5938,27.6406 480.0156,27.2031 Q480.2813,26.9375 480.4219,26.8594 Q480.5781,26.7813 480.7813,26.7813 Q481.1094,26.7813 481.3594,27.0469 Q481.625,27.2969 481.625,27.6406 Q481.625,27.9844 481.2813,28.3906 Q480.7813,28.9688 479.9844,29.2969 Q478.9063,29.75 477.6094,29.75 Q476.0938,29.75 474.8906,29.125 Q473.9063,28.625 473.2188,27.5625 Q472.5313,26.4844 472.5313,25.2031 L472.5313,24.0469 Q472.5313,22.7188 473.1406,21.5781 Q473.7656,20.4219 474.8594,19.8125 Q475.9531,19.1875 477.1875,19.1875 Q477.9219,19.1875 478.5625,19.3594 Q479.2188,19.5156 479.7656,19.875 Z "/><text fill="#000000" font-family="sans-serif" font-size="12" lengthAdjust="spacingAndGlyphs" textLength="47" x="491" y="28.9102">Class29</text><line style="stroke: #A80036; stroke-width: 1.5;" x1="463" x2="540" y1="40" y2="40"/><line style="stroke: #A80036; stroke-width: 1.5;" x1="463" x2="540" y1="48" y2="48"/><!--class Class30--><rect fill="#FEFECE" filter="url(#f18n51n6y4zhbw)" height="48" id="Class30" style="stroke: #A80036; stroke-width: 1.5;" width="79" x="462" y="116"/><ellipse cx="477" cy="132" fill="#ADD1B2" rx="11" ry="11" style="stroke: #A80036; stroke-width: 1.0;"/><path d="M479.7656,127.875 Q479.9219,127.6563 480.1094,127.5469 Q480.2969,127.4375 480.5156,127.4375 Q480.8906,127.4375 481.125,127.7031 Q481.3594,127.9531 481.3594,128.5625 L481.3594,130.0156 Q481.3594,130.625 481.125,130.8906 Q480.8906,131.1563 480.5156,131.1563 Q480.1719,131.1563 479.9688,130.9531 Q479.7656,130.7656 479.6563,130.25 Q479.6094,129.8906 479.4219,129.7031 Q479.0938,129.3281 478.4844,129.1094 Q477.875,128.8906 477.25,128.8906 Q476.4844,128.8906 475.8438,129.2188 Q475.2188,129.5469 474.7188,130.2969 Q474.2344,131.0469 474.2344,132.0781 L474.2344,133.1719 Q474.2344,134.4063 475.125,135.2344 Q476.0156,136.0469 477.6094,136.0469 Q478.5469,136.0469 479.2031,135.7969 Q479.5938,135.6406 480.0156,135.2031 Q480.2813,134.9375 480.4219,134.8594 Q480.5781,134.7813 480.7813,134.7813 Q481.1094,134.7813 481.3594,135.0469 Q481.625,135.2969 481.625,135.6406 Q481.625,135.9844 481.2813,136.3906 Q480.7813,136.9688 479.9844,137.2969 Q478.9063,137.75 477.6094,137.75 Q476.0938,137.75 474.8906,137.125 Q473.9063,136.625 473.2188,135.5625 Q472.5313,134.4844 472.5313,133.2031 L472.5313,132.0469 Q472.5313,130.7188 473.1406,129.5781 Q473.7656,128.4219 474.8594,127.8125 Q475.9531,127.1875 477.1875,127.1875 Q477.9219,127.1875 478.5625,127.3594 Q479.2188,127.5156 479.7656,127.875 Z "/><text fill="#000000" font-family="sans-serif" font-size="12" lengthAdjust="spacingAndGlyphs" textLength="47" x="491" y="136.9102">Class30</text><line style="stroke: #A80036; stroke-width: 1.5;" x1="463" x2="540" y1="148" y2="148"/><line style="stroke: #A80036; stroke-width: 1.5;" x1="463" x2="540" y1="156" y2="156"/><!--link Class21 to Class22--><path d="M45.5,61.131 C45.5,78.1538 45.5,99.6037 45.5,115.6784 " fill="none" id="Class21-Class22" style="stroke: #A80036; stroke-width: 1.0;"/><rect fill="#FFFFFF" height="10" style="stroke: #A80036; stroke-width: 1.5;" width="10" x="40.5" y="51"/><!--link Class23 to Class24--><path d="M159.5,61.131 C159.5,78.1538 159.5,99.6037 159.5,115.6784 " fill="none" id="Class23-Class24" style="stroke: #A80036; stroke-width: 1.0;"/><path d="M155.5,61 L163.5,69 M163.5,61 L155.5,69 " fill="none" style="stroke: #A80036; stroke-width: 1.0;"/><!--link Class25 to Class26--><path d="M273.5,64.2585 C273.5,80.723 273.5,100.5737 273.5,115.6784 " fill="none" id="Class25-Class26" style="stroke: #A80036; stroke-width: 1.0;"/><line style="stroke: #A80036; stroke-width: 1.0;" x1="273.5" x2="265.5" y1="64" y2="56"/><line style="stroke: #A80036; stroke-width: 1.0;" x1="273.5" x2="281.5" y1="64" y2="56"/><line style="stroke: #A80036; stroke-width: 1.0;" x1="273.5" x2="273.5" y1="64" y2="56"/><!--link Class27 to Class28--><path d="M387.5,71.227 C387.5,86.0966 387.5,102.6523 387.5,115.6784 " fill="none" id="Class27-Class28" style="stroke: #A80036; stroke-width: 1.0;"/><ellipse cx="387.5001" cy="64" fill="#FFFFFF" rx="8" ry="8" style="stroke: #A80036; stroke-width: 1.0;"/><line style="stroke: #A80036; stroke-width: 1.0;" x1="387.5002" x2="387.5" y1="72" y2="56"/><line style="stroke: #A80036; stroke-width: 1.0;" x1="379.5001" x2="395.5001" y1="64.0001" y2="63.9999"/><!--link Class29 to Class30--><path d="M501.5,76.0236 C501.5,89.5792 501.5,104.0381 501.5,115.6784 " fill="none" id="Class29-Class30" style="stroke: #A80036; stroke-width: 1.0;"/><polygon fill="none" points="494.5,76.0005,501.5,56,508.5,76.0004,494.5,76.0005" style="stroke: #A80036; stroke-width: 1.0;"/><!--
@startuml
Class21 #- - Class22
Class23 x- - Class24
Class25 }- - Class26
Class27 +- - Class28
Class29 ^- - Class30
@enduml

PlantUML version 1.2019.07(Mon Jun 24 22:59:20 EET 2019)
(GPL source distribution)
Java Runtime: OpenJDK Runtime Environment
JVM: OpenJDK 64-Bit Server VM
Java Version: 12.0.1+12
Operating System: Windows 10
OS Version: 10.0
Default Encoding: UTF-8
Language: en
Country: US
--></g></svg>